<svg version="1.1" xmlns="http://www.w3.org/2000/svg" xmlns:xlink="http://www.w3.org/1999/xlink" width="269.37191" height="269.37191" viewBox="0,0,269.37191,269.37191"><g transform="translate(-105.31404,-45.31404)"><g data-paper-data="{&quot;isPaintingLayer&quot;:true}" fill-rule="nonzero" stroke="none" stroke-linecap="butt" stroke-linejoin="miter" stroke-miterlimit="10" stroke-dasharray="" stroke-dashoffset="0" style="mix-blend-mode: normal"><path d="M117.24904,314.68595c-6.59152,0 -11.935,-5.34348 -11.935,-11.935v-245.50191c0,-6.59152 5.34348,-11.935 11.935,-11.935h245.50191c6.59152,0 11.935,5.34348 11.935,11.935v245.50191c0,6.59152 -5.34348,11.935 -11.935,11.935z" fill="#c7c7c7" stroke-width="0"/><path d="M291.70515,256.81631l10.37375,17.98488c-6.42289,4.38675 -14.09373,7.05384 -22.44329,7.05384h-124.10685c-22.23828,0 -40.33463,-18.10828 -40.33463,-40.33463v-148.92464c0.00199,-22.24027 18.09634,-40.33463 40.33463,-40.33463h124.10685c22.23828,0 40.33463,18.09435 40.33463,40.33463v1.70176c-12.77412,-7.04189 -27.26991,-11.01067 -42.29712,-11.01067c-15.27203,0 -30.31715,4.04043 -43.57095,11.68938c-41.7239,24.10126 -56.0724,77.64988 -31.99701,119.37178c15.56062,26.95344 44.61788,43.69236 75.80681,43.69236c4.65545,0 9.23726,-0.48565 13.79319,-1.22407zM342.72999,133.16525c20.67585,35.80058 8.36149,81.74006 -27.43909,102.4179c-35.80058,20.67585 -81.75996,8.36149 -102.43581,-27.43909c-20.66391,-35.80058 -8.35553,-81.72811 27.45103,-102.40397c35.80058,-20.6659 81.74603,-8.38141 102.42387,27.42515zM231.94462,141.06698c0,0.92154 0.44186,1.39524 1.36339,1.39524c0.92751,0 1.40121,-0.45977 1.40121,-1.39524v-11.95012c0,-0.93348 -0.4737,-1.38728 -1.40121,-1.38728c-0.91954,0 -1.36339,0.45381 -1.36339,1.38728zM320.87585,141.06698c0,0.92154 0.44982,1.39524 1.36937,1.39524c0.90959,0 1.38131,-0.45977 1.38131,-1.39524v-11.95012c0,-0.93348 -0.47172,-1.38728 -1.38131,-1.38728c-0.92154,0 -1.36937,0.45381 -1.36937,1.38728zM317.6435,140.59526v-10.87135c0,-1.53855 0.48366,-2.70091 1.35743,-3.52094c0.48366,-0.42395 1.16237,-0.43589 1.71967,-0.64886c-19.58513,-18.59194 -49.66543,-23.2454 -74.20656,-9.07206c-4.39471,2.54567 -8.25402,5.67253 -11.78093,9.03623c0.62298,0.19904 1.28975,0.23486 1.81122,0.69662c0.92154,0.81804 1.40719,1.98837 1.40719,3.52095v10.87731c0,1.41116 -0.48565,2.54966 -1.40719,3.36172c-0.91557,0.81804 -1.98239,1.23601 -3.22438,1.23601c-1.24199,0 -2.30882,-0.41798 -3.2423,-1.23601c-0.87775,-0.81206 -1.36339,-1.93862 -1.36339,-3.36172v-8.58242c-15.31183,19.52542 -18.25757,47.14564 -5.10129,69.93126c2.32076,3.99863 5.10129,7.60913 8.10873,10.90517v-16.74688h3.22438v19.72844c19.57916,18.52029 49.61169,23.14987 74.15481,8.99443c4.32704,-2.48397 8.08484,-5.51528 11.59782,-8.79938v-19.90956h3.19851v16.45828c17.77987,-19.611 22.01934,-49.07231 8.09479,-73.1855c-1.47884,-2.5815 -3.31992,-4.81666 -5.09134,-7.1016v8.3197c0,1.41116 -0.48365,2.55164 -1.38131,3.36171c-0.93348,0.81804 -2.01225,1.23601 -3.22239,1.23601c-1.26189,0 -2.34066,-0.41798 -3.26021,-1.23601c-0.90959,-0.82401 -1.39325,-1.96249 -1.39325,-3.39157zM334.14756,230.97746l-32.23784,18.61782l24.82176,42.99972l32.23785,-18.61583zM362.30318,279.80694l-32.25178,18.61782c5.13911,8.93074 16.53192,11.95012 25.42684,6.81101c8.92079,-5.12916 11.97599,-16.52197 6.82494,-25.42883zM264.58054,124.97293h-3.22239v20.22802h3.22239zM266.18078,161.78064c0.93547,0.82401 1.38131,1.98638 1.38131,3.51497v10.88329c0,1.42509 -0.44784,2.56358 -1.38131,3.36371c-0.91954,0.82401 -1.99831,1.23601 -3.21045,1.23601c-1.22407,0 -2.33867,-0.412 -3.23633,-1.23601c-0.9076,-0.80012 -1.35743,-1.9406 -1.35743,-3.36371v-10.88329c0,-1.52859 0.44982,-2.69096 1.35743,-3.51497c0.88372,-0.81804 2.01225,-1.23601 3.23633,-1.23601c1.21213,0 2.2909,0.41798 3.21045,1.23601zM264.36358,164.68856c0,-0.92154 -0.45977,-1.38131 -1.36937,-1.38131c-0.92154,0 -1.36937,0.45977 -1.36937,1.38131v11.97002c0,0.92154 0.44982,1.37932 1.36937,1.37932c0.9076,0 1.36937,-0.45779 1.36937,-1.37932zM266.18078,197.35831c0.93547,0.79813 1.38131,1.98638 1.38131,3.51497v10.88328c0,1.4052 -0.44784,2.54368 -1.38131,3.35773c-0.91954,0.81206 -1.99831,1.24796 -3.21045,1.24796c-1.22407,0 -2.33867,-0.41201 -3.23633,-1.24796c-0.9076,-0.78818 -1.35743,-1.9406 -1.35743,-3.35773v-10.88328c0,-1.52859 0.44982,-2.71485 1.35743,-3.51497c0.88372,-0.81206 2.01225,-1.23601 3.23633,-1.23601c1.21213,0 2.2909,0.42395 3.21045,1.23601zM264.36358,200.26622c0,-0.92154 -0.45977,-1.38131 -1.36937,-1.38131c-0.92154,0 -1.36937,0.45977 -1.36937,1.38131v11.95012c0,0.92154 0.44982,1.38131 1.36937,1.38131c0.9076,0 1.36937,-0.45977 1.36937,-1.38131zM236.55429,161.78064c0.89765,0.82401 1.38131,1.98638 1.38131,3.51497v10.88329c0,1.42509 -0.48366,2.56358 -1.38131,3.36371c-0.92751,0.82401 -1.99235,1.23601 -3.22239,1.23601c-1.25393,0 -2.32276,-0.412 -3.25424,-1.23601c-0.89168,-0.80012 -1.35145,-1.9406 -1.35145,-3.36371v-10.88329c0,-1.52859 0.45977,-2.69096 1.35145,-3.51497c0.93348,-0.81804 2.00031,-1.23601 3.25424,-1.23601c1.2181,0 2.28493,0.41798 3.22239,1.23601zM234.73112,164.68856c0,-0.92154 -0.46575,-1.38131 -1.38728,-1.38131c-0.92154,0 -1.37534,0.45977 -1.37534,1.38131v11.97002c0,0.92154 0.4558,1.37932 1.37534,1.37932c0.91954,0 1.38728,-0.45779 1.38728,-1.37932zM295.84908,126.20298c0.90959,0.81804 1.38131,1.98239 1.38131,3.52094v10.87135c0,1.41714 -0.47171,2.55761 -1.38131,3.36967c-0.94542,0.81804 -2.01225,1.23601 -3.23433,1.23601c-1.22407,0 -2.31479,-0.41798 -3.22438,-1.23601c-0.90959,-0.81206 -1.36937,-1.9406 -1.36937,-3.36967v-10.87135c0,-1.53855 0.45977,-2.70091 1.36937,-3.52094c0.90959,-0.82003 2.00031,-1.23005 3.22438,-1.23005c1.22407,0 2.2909,0.42395 3.23433,1.23005zM294.01993,129.11686c0,-0.93348 -0.48365,-1.38728 -1.40519,-1.38728c-0.90959,0 -1.36937,0.45381 -1.36937,1.38728v11.95012c0,0.92154 0.45977,1.39524 1.36937,1.39524c0.92154,0 1.40519,-0.45977 1.40519,-1.39524zM295.84908,161.78064c0.90959,0.82401 1.38131,1.98638 1.38131,3.51497v10.88329c0,1.42509 -0.47171,2.56358 -1.38131,3.36371c-0.94542,0.82401 -2.01225,1.23601 -3.23433,1.23601c-1.22407,0 -2.31479,-0.412 -3.22438,-1.23601c-0.90959,-0.80012 -1.36937,-1.9406 -1.36937,-3.36371v-10.88329c0,-1.52859 0.45977,-2.69096 1.36937,-3.51497c0.90959,-0.81804 2.00031,-1.23601 3.22438,-1.23601c1.22407,0 2.2909,0.41798 3.23433,1.23601zM294.01993,164.68856c0,-0.92154 -0.48365,-1.38131 -1.40519,-1.38131c-0.90959,0 -1.36937,0.45977 -1.36937,1.38131v11.97002c0,0.92154 0.45977,1.37932 1.36937,1.37932c0.92154,0 1.40519,-0.45779 1.40519,-1.37932zM291.00255,216.36027h3.22438v-20.23797h-3.22438zM317.6435,165.29562c0,-1.52859 0.48366,-2.69096 1.35743,-3.51497c0.92154,-0.81804 2.00031,-1.23601 3.24827,-1.23601c1.22407,0 2.30285,0.41798 3.22438,1.23601c0.91954,0.82401 1.37932,1.98638 1.37932,3.51497v10.88329c0,1.42509 -0.45977,2.56358 -1.37932,3.36371c-0.92154,0.82401 -2.00031,1.23601 -3.22438,1.23601c-1.24795,0 -2.32673,-0.412 -3.24827,-1.23601c-0.87177,-0.80012 -1.35743,-1.9406 -1.35743,-3.36371zM320.87585,176.65857c0,0.92154 0.44982,1.37932 1.36937,1.37932c0.90959,0 1.38131,-0.45779 1.38131,-1.37932v-11.97002c0,-0.92154 -0.47172,-1.38131 -1.38131,-1.38131c-0.92154,0 -1.36937,0.45977 -1.36937,1.38131z" fill="#000000" stroke-width="1"/></g></g></svg>