<svg version="1.1" xmlns="http://www.w3.org/2000/svg" xmlns:xlink="http://www.w3.org/1999/xlink" width="269.37191" height="269.87123" viewBox="0,0,269.37191,269.87123"><g transform="translate(-105.31404,-44.81473)"><g data-paper-data="{&quot;isPaintingLayer&quot;:true}" fill-rule="nonzero" stroke-linecap="butt" stroke-linejoin="miter" stroke-miterlimit="10" stroke-dasharray="" stroke-dashoffset="0" style="mix-blend-mode: normal"><path d="M117.24904,314.68595c-6.59152,0 -11.935,-5.34348 -11.935,-11.935v-245.50191c0,-6.59152 5.34348,-11.935 11.935,-11.935h245.50191c6.59152,0 11.935,5.34348 11.935,11.935v245.50191c0,6.59152 -5.34348,11.935 -11.935,11.935z" fill="#ffffff" stroke="none" stroke-width="0"/><g><path d="M153.75447,107.90413l107.64943,-34.29014l83.52082,76.08207l-24.12858,110.37217l-107.64943,34.29014l-83.52082,-76.08207z" fill="#9966ff" stroke="#000000" stroke-width="2"/><path d="M147.72843,284.36969l44.58686,-226.72806l174.05882,151.97741z" fill="#66ebff" stroke="#000000" stroke-width="2"/><path d="M285.1335,229.34444l-38.88319,-36.85208l-22.67914,23.92913l-34.15411,-77.79353l38.88319,36.85208l22.67914,-23.92913z" fill="#00daff" stroke="none" stroke-width="0"/></g><text transform="translate(149.74557,186.52171) rotate(22.62708) scale(3.53139,3.53139)" font-size="40" xml:space="preserve" fill="#000000" fill-rule="nonzero" stroke="none" stroke-width="1" stroke-linecap="butt" stroke-linejoin="miter" stroke-miterlimit="10" stroke-dasharray="" stroke-dashoffset="0" font-family="Sans Serif" font-weight="normal" text-anchor="start" style="mix-blend-mode: normal"><tspan x="0" dy="0">10</tspan></text></g></g></svg>