<svg version="1.1" xmlns="http://www.w3.org/2000/svg" xmlns:xlink="http://www.w3.org/1999/xlink" width="296.13367" height="285.44217" viewBox="0,0,296.13367,285.44217"><g transform="translate(-96.9362,-29.29092)"><g data-paper-data="{&quot;isPaintingLayer&quot;:true}" fill-rule="nonzero" stroke-linecap="butt" stroke-linejoin="miter" stroke-miterlimit="10" stroke-dasharray="" stroke-dashoffset="0" style="mix-blend-mode: normal"><path d="M117.24904,314.68595c-6.59152,0 -11.935,-5.34348 -11.935,-11.935v-245.50191c0,-6.59152 5.34348,-11.935 11.935,-11.935h245.50191c6.59152,0 11.935,5.34348 11.935,11.935v245.50191c0,6.59152 -5.34348,11.935 -11.935,11.935z" fill="#ffffff" stroke="none" stroke-width="0"/><g><g><g><path d="M164.84017,56.90435c0,-0.86286 0.6995,-1.56235 1.56235,-1.56235h24.9939c0.86286,0 1.56235,0.6995 1.56235,1.56235v10.89777h31.03708c6.90291,0 12.49881,5.5959 12.49881,12.49881v196.202c0,6.90291 -5.5959,12.49881 -12.49881,12.49881h-88.41405c-6.90291,0 -12.49881,-5.5959 -12.49881,-12.49881v-196.202c0,-6.90291 5.5959,-12.49881 12.49881,-12.49881h29.2584z" fill="#9966ff" stroke="#000000" stroke-width="2"/><text transform="translate(153.28237,127.90643) scale(2.27213,2.27213)" font-size="40" xml:space="preserve" fill="#66ebff" fill-rule="nonzero" stroke="none" stroke-width="1" stroke-linecap="butt" stroke-linejoin="miter" stroke-miterlimit="10" stroke-dasharray="" stroke-dashoffset="0" font-family="Sans Serif" font-weight="normal" text-anchor="start" style="mix-blend-mode: normal"><tspan x="0" dy="0">+</tspan></text><text transform="translate(155.78388,286.935) scale(3.50923,2.27213)" font-size="40" xml:space="preserve" fill="#66ebff" fill-rule="nonzero" stroke="none" stroke-width="1" stroke-linecap="butt" stroke-linejoin="miter" stroke-miterlimit="10" stroke-dasharray="" stroke-dashoffset="0" font-family="Sans Serif" font-weight="normal" text-anchor="start" style="mix-blend-mode: normal"><tspan x="0" dy="0">-</tspan></text></g><g><path d="M143.48677,148.93452l41.27794,-13.14847l32.02586,29.1735l-9.25206,42.32197l-41.27794,13.14847l-32.02586,-29.1735z" fill="#9966ff" stroke="#000000" stroke-width="2"/><path d="M141.17612,216.59983l17.09675,-86.93838l66.74246,58.27539z" fill="#66ebff" stroke="#000000" stroke-width="2"/><path d="M193.86378,195.50052l-14.90967,-14.13084l-8.69627,9.17556l-13.09632,-29.82975l14.90967,14.13084l8.69627,-9.17556z" fill="#00daff" stroke="none" stroke-width="0"/></g></g><g><g><path d="M285.26252,56.59397c0,-0.86286 0.6995,-1.56235 1.56235,-1.56235h24.9939c0.86286,0 1.56235,0.6995 1.56235,1.56235v10.89777h31.03708c6.90291,0 12.49881,5.5959 12.49881,12.49881v196.202c0,6.90291 -5.5959,12.49881 -12.49881,12.49881h-88.41405c-6.90291,0 -12.49881,-5.5959 -12.49881,-12.49881v-196.202c0,-6.90291 5.5959,-12.49881 12.49881,-12.49881h29.2584z" fill="#9966ff" stroke="#000000" stroke-width="2"/><text transform="translate(273.70471,127.59605) scale(2.27213,2.27213)" font-size="40" xml:space="preserve" fill="#66ebff" fill-rule="nonzero" stroke="none" stroke-width="1" stroke-linecap="butt" stroke-linejoin="miter" stroke-miterlimit="10" stroke-dasharray="" stroke-dashoffset="0" font-family="Sans Serif" font-weight="normal" text-anchor="start" style="mix-blend-mode: normal"><tspan x="0" dy="0">+</tspan></text><text transform="translate(276.20622,286.62463) scale(3.50923,2.27213)" font-size="40" xml:space="preserve" fill="#66ebff" fill-rule="nonzero" stroke="none" stroke-width="1" stroke-linecap="butt" stroke-linejoin="miter" stroke-miterlimit="10" stroke-dasharray="" stroke-dashoffset="0" font-family="Sans Serif" font-weight="normal" text-anchor="start" style="mix-blend-mode: normal"><tspan x="0" dy="0">-</tspan></text></g><g><path d="M263.90911,148.62414l41.27794,-13.14847l32.02586,29.1735l-9.25206,42.32197l-41.27794,13.14847l-32.02586,-29.1735z" fill="#9966ff" stroke="#000000" stroke-width="2"/><path d="M261.59846,216.28945l17.09675,-86.93838l66.74246,58.27539z" fill="#66ebff" stroke="#000000" stroke-width="2"/><path d="M314.28613,195.19015l-14.90967,-14.13084l-8.69627,9.17556l-13.09632,-29.82975l14.90967,14.13084l8.69627,-9.17556z" fill="#00daff" stroke="none" stroke-width="0"/></g></g></g><text transform="translate(111.1495,162.04535) rotate(22.62704) scale(2.75001,2.75001)" font-size="40" xml:space="preserve" fill="#000000" fill-rule="nonzero" stroke="none" stroke-width="1" stroke-linecap="butt" stroke-linejoin="miter" stroke-miterlimit="10" stroke-dasharray="" stroke-dashoffset="0" font-family="Sans Serif" font-weight="normal" text-anchor="start" style="mix-blend-mode: normal"><tspan x="0" dy="0">1000</tspan></text></g></g></svg>