<svg version="1.1" xmlns="http://www.w3.org/2000/svg" xmlns:xlink="http://www.w3.org/1999/xlink" width="38.29519" height="91.25081" viewBox="0,0,38.29519,91.25081"><g transform="translate(-220.8524,-131.81821)"><g data-paper-data="{&quot;isPaintingLayer&quot;:true}" fill-rule="nonzero" stroke-linecap="butt" stroke-linejoin="miter" stroke-miterlimit="10" stroke-dasharray="" stroke-dashoffset="0" style="mix-blend-mode: normal"><g><path d="M235.21598,140.55598c0,-0.27614 0.22386,-0.5 0.5,-0.5h7.99881c0.27614,0 0.5,0.22386 0.5,0.5v3.48762h9.93281c2.20914,0 4,1.79086 4,4v62.79062c0,2.20914 -1.79086,4 -4,4h-28.29519c-2.20914,0 -4,-1.79086 -4,-4v-62.79062c0,-2.20914 1.79086,-4 4,-4h9.36358z" fill="#9966ff" stroke="#000000" stroke-width="2"/><text transform="translate(231.51713,163.27881) scale(0.72715,0.72715)" font-size="40" xml:space="preserve" fill="#66ebff" fill-rule="nonzero" stroke="none" stroke-width="1" stroke-linecap="butt" stroke-linejoin="miter" stroke-miterlimit="10" stroke-dasharray="" stroke-dashoffset="0" font-family="Sans Serif" font-weight="normal" text-anchor="start" style="mix-blend-mode: normal"><tspan x="0" dy="0">+</tspan></text><text transform="translate(232.31769,214.1728) scale(1.12306,0.72715)" font-size="40" xml:space="preserve" fill="#66ebff" fill-rule="nonzero" stroke="none" stroke-width="1" stroke-linecap="butt" stroke-linejoin="miter" stroke-miterlimit="10" stroke-dasharray="" stroke-dashoffset="0" font-family="Sans Serif" font-weight="normal" text-anchor="start" style="mix-blend-mode: normal"><tspan x="0" dy="0">-</tspan></text></g><g><path d="M228.38224,170.00844l13.2102,-4.20791l10.24925,9.33641l-2.96094,13.54432l-13.2102,4.20791l-10.24925,-9.33641z" fill="#9966ff" stroke="#000000" stroke-width="2"/><path d="M227.64276,191.6634l5.47148,-27.82293l21.35962,18.6499z" fill="#66ebff" stroke="#000000" stroke-width="2"/><path d="M244.50442,184.91098l-4.77155,-4.5223l-2.78307,2.93646l-4.19122,-9.54643l4.77155,4.5223l2.78307,-2.93646z" fill="#00daff" stroke="none" stroke-width="0"/></g></g></g></svg>